<?xml version="1.0" encoding="UTF-8"?>
<svg xmlns="http://www.w3.org/2000/svg" height="722" width="840">
   <g transform="translate(370, 100)">
      <line x1="-320" x2="320" y1="0" y2="0" stroke="black"/>
      <line x1="0" x2="0" y1="0" y2="522" stroke="black"/>
      <text x="160"
            y="-50"
            font-size="16"
            text-anchor="middle"
            font-weight="300">Count: "Un-Stressed"</text>
      <text x="-160"
            y="-50"
            font-size="16"
            text-anchor="middle"
            font-weight="300">Count: "Stressed"</text>
      <text x="0"
            y="572"
            font-size="18"
            text-anchor="middle"
            font-weight="300">Mentions of Personal Finance by Year: "Stessed" vs. "Un-Stressed"</text>
      <text y="-20" x="0" font-size="13" text-anchor="middle">0</text>
      <line y1="-15" y2="0" x1="0" x2="0" stroke="black"/>
      <line y1="0"
            y2="522"
            x1="0"
            x2="0"
            stroke="black"
            opacity=".5"/>
      <text y="-20" x="64" font-size="13" text-anchor="middle">8</text>
      <line y1="-15" y2="0" x1="64" x2="64" stroke="black"/>
      <line y1="0"
            y2="522"
            x1="64"
            x2="64"
            stroke="black"
            opacity=".5"/>
      <text y="-20" x="128" font-size="13" text-anchor="middle">16</text>
      <line y1="-15" y2="0" x1="128" x2="128" stroke="black"/>
      <line y1="0"
            y2="522"
            x1="128"
            x2="128"
            stroke="black"
            opacity=".5"/>
      <text y="-20" x="192" font-size="13" text-anchor="middle">24</text>
      <line y1="-15" y2="0" x1="192" x2="192" stroke="black"/>
      <line y1="0"
            y2="522"
            x1="192"
            x2="192"
            stroke="black"
            opacity=".5"/>
      <text y="-20" x="256" font-size="13" text-anchor="middle">32</text>
      <line y1="-15" y2="0" x1="256" x2="256" stroke="black"/>
      <line y1="0"
            y2="522"
            x1="256"
            x2="256"
            stroke="black"
            opacity=".5"/>
      <text y="-20" x="320" font-size="13" text-anchor="middle">40</text>
      <line y1="-15" y2="0" x1="320" x2="320" stroke="black"/>
      <line y1="0"
            y2="522"
            x1="320"
            x2="320"
            stroke="black"
            opacity=".5"/>
      <text y="-20" x="-320" font-size="13" text-anchor="middle">40</text>
      <line y1="-15" y2="0" x1="-320" x2="-320" stroke="black"/>
      <line y1="0"
            y2="522"
            x1="-320"
            x2="-320"
            stroke="black"
            opacity=".5"/>
      <text y="-20" x="-256" font-size="13" text-anchor="middle">32</text>
      <line y1="-15" y2="0" x1="-256" x2="-256" stroke="black"/>
      <line y1="0"
            y2="522"
            x1="-256"
            x2="-256"
            stroke="black"
            opacity=".5"/>
      <text y="-20" x="-192" font-size="13" text-anchor="middle">24</text>
      <line y1="-15" y2="0" x1="-192" x2="-192" stroke="black"/>
      <line y1="0"
            y2="522"
            x1="-192"
            x2="-192"
            stroke="black"
            opacity=".5"/>
      <text y="-20" x="-128" font-size="13" text-anchor="middle">16</text>
      <line y1="-15" y2="0" x1="-128" x2="-128" stroke="black"/>
      <line y1="0"
            y2="522"
            x1="-128"
            x2="-128"
            stroke="black"
            opacity=".5"/>
      <text y="-20" x="-64" font-size="13" text-anchor="middle">8</text>
      <line y1="-15" y2="0" x1="-64" x2="-64" stroke="black"/>
      <line y1="0"
            y2="522"
            x1="-64"
            x2="-64"
            stroke="black"
            opacity=".5"/>
      <rect x="0"
            width="0"
            y="9"
            height="18"
            fill="#88c5db"
            stroke-width="1"
            stroke="black"/>
      <text x="345" y="18" text-anchor="middle" font-size="12">1872</text>
      <rect x="0"
            width="0"
            y="36"
            height="18"
            fill="#88c5db"
            stroke-width="1"
            stroke="black"/>
      <text x="345" y="45" text-anchor="middle" font-size="12">1873</text>
      <rect x="0"
            width="0"
            y="63"
            height="18"
            fill="#88c5db"
            stroke-width="1"
            stroke="black"/>
      <text x="345" y="72" text-anchor="middle" font-size="12">1874</text>
      <rect x="0"
            width="0"
            y="90"
            height="18"
            fill="#88c5db"
            stroke-width="1"
            stroke="black"/>
      <text x="345" y="99" text-anchor="middle" font-size="12">1875</text>
      <rect x="0"
            width="0"
            y="117"
            height="18"
            fill="#88c5db"
            stroke-width="1"
            stroke="black"/>
      <text x="345" y="126" text-anchor="middle" font-size="12">1876</text>
      <rect x="0"
            width="0"
            y="144"
            height="18"
            fill="#88c5db"
            stroke-width="1"
            stroke="black"/>
      <text x="345" y="153" text-anchor="middle" font-size="12">1877</text>
      <rect x="0"
            width="0"
            y="171"
            height="18"
            fill="#88c5db"
            stroke-width="1"
            stroke="black"/>
      <text x="345" y="180" text-anchor="middle" font-size="12">1878</text>
      <rect x="0"
            width="0"
            y="198"
            height="18"
            fill="#88c5db"
            stroke-width="1"
            stroke="black"/>
      <text x="345" y="207" text-anchor="middle" font-size="12">1879</text>
      <rect x="0"
            width="0"
            y="225"
            height="18"
            fill="#88c5db"
            stroke-width="1"
            stroke="black"/>
      <text x="345" y="234" text-anchor="middle" font-size="12">1880</text>
      <rect x="0"
            width="8"
            y="252"
            height="18"
            fill="#88c5db"
            stroke-width="1"
            stroke="black"/>
      <text x="345" y="261" text-anchor="middle" font-size="12">1881</text>
      <rect x="0"
            width="8"
            y="279"
            height="18"
            fill="#88c5db"
            stroke-width="1"
            stroke="black"/>
      <text x="345" y="288" text-anchor="middle" font-size="12">1882</text>
      <rect x="0"
            width="88"
            y="306"
            height="18"
            fill="#88c5db"
            stroke-width="1"
            stroke="black"/>
      <text x="345" y="315" text-anchor="middle" font-size="12">1883</text>
      <rect x="0"
            width="32"
            y="333"
            height="18"
            fill="#88c5db"
            stroke-width="1"
            stroke="black"/>
      <text x="345" y="342" text-anchor="middle" font-size="12">1884</text>
      <rect x="0"
            width="24"
            y="360"
            height="18"
            fill="#88c5db"
            stroke-width="1"
            stroke="black"/>
      <text x="345" y="369" text-anchor="middle" font-size="12">1885</text>
      <rect x="0"
            width="0"
            y="387"
            height="18"
            fill="#88c5db"
            stroke-width="1"
            stroke="black"/>
      <text x="345" y="396" text-anchor="middle" font-size="12">1886</text>
      <rect x="0"
            width="0"
            y="414"
            height="18"
            fill="#88c5db"
            stroke-width="1"
            stroke="black"/>
      <text x="345" y="423" text-anchor="middle" font-size="12">1887</text>
      <rect x="0"
            width="24"
            y="441"
            height="18"
            fill="#88c5db"
            stroke-width="1"
            stroke="black"/>
      <text x="345" y="450" text-anchor="middle" font-size="12">1888</text>
      <rect x="0"
            width="24"
            y="468"
            height="18"
            fill="#88c5db"
            stroke-width="1"
            stroke="black"/>
      <text x="345" y="477" text-anchor="middle" font-size="12">1889</text>
      <rect x="0"
            width="0"
            y="495"
            height="18"
            fill="#88c5db"
            stroke-width="1"
            stroke="black"/>
      <text x="345" y="504" text-anchor="middle" font-size="12">1890</text>
      <rect x="-0"
            width="0"
            y="9"
            height="18"
            fill="#f0d946"
            stroke-width="1"
            stroke="black"/>
      <rect x="-0"
            width="0"
            y="36"
            height="18"
            fill="#f0d946"
            stroke-width="1"
            stroke="black"/>
      <rect x="-0"
            width="0"
            y="63"
            height="18"
            fill="#f0d946"
            stroke-width="1"
            stroke="black"/>
      <rect x="-8"
            width="8"
            y="90"
            height="18"
            fill="#f0d946"
            stroke-width="1"
            stroke="black"/>
      <rect x="-8"
            width="8"
            y="117"
            height="18"
            fill="#f0d946"
            stroke-width="1"
            stroke="black"/>
      <rect x="-8"
            width="8"
            y="144"
            height="18"
            fill="#f0d946"
            stroke-width="1"
            stroke="black"/>
      <rect x="-0"
            width="0"
            y="171"
            height="18"
            fill="#f0d946"
            stroke-width="1"
            stroke="black"/>
      <rect x="-0"
            width="0"
            y="198"
            height="18"
            fill="#f0d946"
            stroke-width="1"
            stroke="black"/>
      <rect x="-16"
            width="16"
            y="225"
            height="18"
            fill="#f0d946"
            stroke-width="1"
            stroke="black"/>
      <rect x="-0"
            width="0"
            y="252"
            height="18"
            fill="#f0d946"
            stroke-width="1"
            stroke="black"/>
      <rect x="-176"
            width="176"
            y="279"
            height="18"
            fill="#f0d946"
            stroke-width="1"
            stroke="black"/>
      <rect x="-280"
            width="280"
            y="306"
            height="18"
            fill="#f0d946"
            stroke-width="1"
            stroke="black"/>
      <rect x="-200"
            width="200"
            y="333"
            height="18"
            fill="#f0d946"
            stroke-width="1"
            stroke="black"/>
      <rect x="-208"
            width="208"
            y="360"
            height="18"
            fill="#f0d946"
            stroke-width="1"
            stroke="black"/>
      <rect x="-40"
            width="40"
            y="387"
            height="18"
            fill="#f0d946"
            stroke-width="1"
            stroke="black"/>
      <rect x="-0"
            width="0"
            y="414"
            height="18"
            fill="#f0d946"
            stroke-width="1"
            stroke="black"/>
      <rect x="-160"
            width="160"
            y="441"
            height="18"
            fill="#f0d946"
            stroke-width="1"
            stroke="black"/>
      <rect x="-216"
            width="216"
            y="468"
            height="18"
            fill="#f0d946"
            stroke-width="1"
            stroke="black"/>
      <rect x="-16"
            width="16"
            y="495"
            height="18"
            fill="#f0d946"
            stroke-width="1"
            stroke="black"/>
   </g>
</svg>
