<?xml version="1.0" encoding="UTF-8"?>
<svg xmlns="http://www.w3.org/2000/svg" height="722" width="800">
   <g transform="translate(350, 100)">
      <line x1="-300" x2="300" y1="0" y2="0" stroke="black"/>
      <line x1="0" x2="0" y1="0" y2="522" stroke="black"/>
      <text x="150"
            y="-50"
            font-size="16"
            text-anchor="middle"
            font-weight="300">Count: "Un-Stressed"</text>
      <text x="-150"
            y="-50"
            font-size="16"
            text-anchor="middle"
            font-weight="300">Count: "Stressed"</text>
      <text x="0"
            y="572"
            font-size="18"
            text-anchor="middle"
            font-weight="300">Mentions of Family by Year: "Stessed" vs. "Un-Stressed"</text>
      <text y="-20" x="0" font-size="13" text-anchor="middle">0</text>
      <line y1="-15" y2="0" x1="0" x2="0" stroke="black"/>
      <line y1="0"
            y2="522"
            x1="0"
            x2="0"
            stroke="black"
            opacity=".5"/>
      <text y="-20" x="60" font-size="13" text-anchor="middle">12</text>
      <line y1="-15" y2="0" x1="60" x2="60" stroke="black"/>
      <line y1="0"
            y2="522"
            x1="60"
            x2="60"
            stroke="black"
            opacity=".5"/>
      <text y="-20" x="120" font-size="13" text-anchor="middle">24</text>
      <line y1="-15" y2="0" x1="120" x2="120" stroke="black"/>
      <line y1="0"
            y2="522"
            x1="120"
            x2="120"
            stroke="black"
            opacity=".5"/>
      <text y="-20" x="180" font-size="13" text-anchor="middle">36</text>
      <line y1="-15" y2="0" x1="180" x2="180" stroke="black"/>
      <line y1="0"
            y2="522"
            x1="180"
            x2="180"
            stroke="black"
            opacity=".5"/>
      <text y="-20" x="240" font-size="13" text-anchor="middle">48</text>
      <line y1="-15" y2="0" x1="240" x2="240" stroke="black"/>
      <line y1="0"
            y2="522"
            x1="240"
            x2="240"
            stroke="black"
            opacity=".5"/>
      <text y="-20" x="300" font-size="13" text-anchor="middle">60</text>
      <line y1="-15" y2="0" x1="300" x2="300" stroke="black"/>
      <line y1="0"
            y2="522"
            x1="300"
            x2="300"
            stroke="black"
            opacity=".5"/>
      <text y="-20" x="-300" font-size="13" text-anchor="middle">60</text>
      <line y1="-15" y2="0" x1="-300" x2="-300" stroke="black"/>
      <line y1="0"
            y2="522"
            x1="-300"
            x2="-300"
            stroke="black"
            opacity=".5"/>
      <text y="-20" x="-240" font-size="13" text-anchor="middle">48</text>
      <line y1="-15" y2="0" x1="-240" x2="-240" stroke="black"/>
      <line y1="0"
            y2="522"
            x1="-240"
            x2="-240"
            stroke="black"
            opacity=".5"/>
      <text y="-20" x="-180" font-size="13" text-anchor="middle">36</text>
      <line y1="-15" y2="0" x1="-180" x2="-180" stroke="black"/>
      <line y1="0"
            y2="522"
            x1="-180"
            x2="-180"
            stroke="black"
            opacity=".5"/>
      <text y="-20" x="-120" font-size="13" text-anchor="middle">24</text>
      <line y1="-15" y2="0" x1="-120" x2="-120" stroke="black"/>
      <line y1="0"
            y2="522"
            x1="-120"
            x2="-120"
            stroke="black"
            opacity=".5"/>
      <text y="-20" x="-60" font-size="13" text-anchor="middle">12</text>
      <line y1="-15" y2="0" x1="-60" x2="-60" stroke="black"/>
      <line y1="0"
            y2="522"
            x1="-60"
            x2="-60"
            stroke="black"
            opacity=".5"/>
      <line x1="-300"
            x2="300"
            y1="18"
            y2="18"
            stroke="black"
            opacity=".5"
            stroke-dasharray="5,5"/>
      <rect x="0"
            width="5"
            y="9"
            height="18"
            fill="#88c5db"
            stroke-width="1"
            stroke="black"/>
      <text x="325" y="21" text-anchor="middle" font-size="12">1872</text>
      <line x1="-300"
            x2="300"
            y1="45"
            y2="45"
            stroke="black"
            opacity=".5"
            stroke-dasharray="5,5"/>
      <rect x="0"
            width="5"
            y="36"
            height="18"
            fill="#88c5db"
            stroke-width="1"
            stroke="black"/>
      <text x="325" y="48" text-anchor="middle" font-size="12">1873</text>
      <line x1="-300"
            x2="300"
            y1="72"
            y2="72"
            stroke="black"
            opacity=".5"
            stroke-dasharray="5,5"/>
      <rect x="0"
            width="5"
            y="63"
            height="18"
            fill="#88c5db"
            stroke-width="1"
            stroke="black"/>
      <text x="325" y="75" text-anchor="middle" font-size="12">1874</text>
      <line x1="-300"
            x2="300"
            y1="99"
            y2="99"
            stroke="black"
            opacity=".5"
            stroke-dasharray="5,5"/>
      <rect x="0"
            width="0"
            y="90"
            height="18"
            fill="#88c5db"
            stroke-width="1"
            stroke="black"/>
      <text x="325" y="102" text-anchor="middle" font-size="12">1875</text>
      <line x1="-300"
            x2="300"
            y1="126"
            y2="126"
            stroke="black"
            opacity=".5"
            stroke-dasharray="5,5"/>
      <rect x="0"
            width="20"
            y="117"
            height="18"
            fill="#88c5db"
            stroke-width="1"
            stroke="black"/>
      <text x="325" y="129" text-anchor="middle" font-size="12">1876</text>
      <line x1="-300"
            x2="300"
            y1="153"
            y2="153"
            stroke="black"
            opacity=".5"
            stroke-dasharray="5,5"/>
      <rect x="0"
            width="50"
            y="144"
            height="18"
            fill="#88c5db"
            stroke-width="1"
            stroke="black"/>
      <text x="325" y="156" text-anchor="middle" font-size="12">1877</text>
      <line x1="-300"
            x2="300"
            y1="180"
            y2="180"
            stroke="black"
            opacity=".5"
            stroke-dasharray="5,5"/>
      <rect x="0"
            width="0"
            y="171"
            height="18"
            fill="#88c5db"
            stroke-width="1"
            stroke="black"/>
      <text x="325" y="183" text-anchor="middle" font-size="12">1878</text>
      <line x1="-300"
            x2="300"
            y1="207"
            y2="207"
            stroke="black"
            opacity=".5"
            stroke-dasharray="5,5"/>
      <rect x="0"
            width="0"
            y="198"
            height="18"
            fill="#88c5db"
            stroke-width="1"
            stroke="black"/>
      <text x="325" y="210" text-anchor="middle" font-size="12">1879</text>
      <line x1="-300"
            x2="300"
            y1="234"
            y2="234"
            stroke="black"
            opacity=".5"
            stroke-dasharray="5,5"/>
      <rect x="0"
            width="0"
            y="225"
            height="18"
            fill="#88c5db"
            stroke-width="1"
            stroke="black"/>
      <text x="325" y="237" text-anchor="middle" font-size="12">1880</text>
      <line x1="-300"
            x2="300"
            y1="261"
            y2="261"
            stroke="black"
            opacity=".5"
            stroke-dasharray="5,5"/>
      <rect x="0"
            width="0"
            y="252"
            height="18"
            fill="#88c5db"
            stroke-width="1"
            stroke="black"/>
      <text x="325" y="264" text-anchor="middle" font-size="12">1881</text>
      <line x1="-300"
            x2="300"
            y1="288"
            y2="288"
            stroke="black"
            opacity=".5"
            stroke-dasharray="5,5"/>
      <rect x="0"
            width="10"
            y="279"
            height="18"
            fill="#88c5db"
            stroke-width="1"
            stroke="black"/>
      <text x="325" y="291" text-anchor="middle" font-size="12">1882</text>
      <line x1="-300"
            x2="300"
            y1="315"
            y2="315"
            stroke="black"
            opacity=".5"
            stroke-dasharray="5,5"/>
      <rect x="0"
            width="35"
            y="306"
            height="18"
            fill="#88c5db"
            stroke-width="1"
            stroke="black"/>
      <text x="325" y="318" text-anchor="middle" font-size="12">1883</text>
      <line x1="-300"
            x2="300"
            y1="342"
            y2="342"
            stroke="black"
            opacity=".5"
            stroke-dasharray="5,5"/>
      <rect x="0"
            width="20"
            y="333"
            height="18"
            fill="#88c5db"
            stroke-width="1"
            stroke="black"/>
      <text x="325" y="345" text-anchor="middle" font-size="12">1884</text>
      <line x1="-300"
            x2="300"
            y1="369"
            y2="369"
            stroke="black"
            opacity=".5"
            stroke-dasharray="5,5"/>
      <rect x="0"
            width="5"
            y="360"
            height="18"
            fill="#88c5db"
            stroke-width="1"
            stroke="black"/>
      <text x="325" y="372" text-anchor="middle" font-size="12">1885</text>
      <line x1="-300"
            x2="300"
            y1="396"
            y2="396"
            stroke="black"
            opacity=".5"
            stroke-dasharray="5,5"/>
      <rect x="0"
            width="0"
            y="387"
            height="18"
            fill="#88c5db"
            stroke-width="1"
            stroke="black"/>
      <text x="325" y="399" text-anchor="middle" font-size="12">1886</text>
      <line x1="-300"
            x2="300"
            y1="423"
            y2="423"
            stroke="black"
            opacity=".5"
            stroke-dasharray="5,5"/>
      <rect x="0"
            width="0"
            y="414"
            height="18"
            fill="#88c5db"
            stroke-width="1"
            stroke="black"/>
      <text x="325" y="426" text-anchor="middle" font-size="12">1887</text>
      <line x1="-300"
            x2="300"
            y1="450"
            y2="450"
            stroke="black"
            opacity=".5"
            stroke-dasharray="5,5"/>
      <rect x="0"
            width="5"
            y="441"
            height="18"
            fill="#88c5db"
            stroke-width="1"
            stroke="black"/>
      <text x="325" y="453" text-anchor="middle" font-size="12">1888</text>
      <line x1="-300"
            x2="300"
            y1="477"
            y2="477"
            stroke="black"
            opacity=".5"
            stroke-dasharray="5,5"/>
      <rect x="0"
            width="80"
            y="468"
            height="18"
            fill="#88c5db"
            stroke-width="1"
            stroke="black"/>
      <text x="325" y="480" text-anchor="middle" font-size="12">1889</text>
      <line x1="-300"
            x2="300"
            y1="504"
            y2="504"
            stroke="black"
            opacity=".5"
            stroke-dasharray="5,5"/>
      <rect x="0"
            width="5"
            y="495"
            height="18"
            fill="#88c5db"
            stroke-width="1"
            stroke="black"/>
      <text x="325" y="507" text-anchor="middle" font-size="12">1890</text>
      <rect x="-0"
            width="0"
            y="9"
            height="18"
            fill="#f0d946"
            stroke-width="1"
            stroke="black"/>
      <rect x="-5"
            width="5"
            y="36"
            height="18"
            fill="#f0d946"
            stroke-width="1"
            stroke="black"/>
      <rect x="-5"
            width="5"
            y="63"
            height="18"
            fill="#f0d946"
            stroke-width="1"
            stroke="black"/>
      <rect x="-0"
            width="0"
            y="90"
            height="18"
            fill="#f0d946"
            stroke-width="1"
            stroke="black"/>
      <rect x="-60"
            width="60"
            y="117"
            height="18"
            fill="#f0d946"
            stroke-width="1"
            stroke="black"/>
      <rect x="-10"
            width="10"
            y="144"
            height="18"
            fill="#f0d946"
            stroke-width="1"
            stroke="black"/>
      <rect x="-10"
            width="10"
            y="171"
            height="18"
            fill="#f0d946"
            stroke-width="1"
            stroke="black"/>
      <rect x="-0"
            width="0"
            y="198"
            height="18"
            fill="#f0d946"
            stroke-width="1"
            stroke="black"/>
      <rect x="-10"
            width="10"
            y="225"
            height="18"
            fill="#f0d946"
            stroke-width="1"
            stroke="black"/>
      <rect x="-15"
            width="15"
            y="252"
            height="18"
            fill="#f0d946"
            stroke-width="1"
            stroke="black"/>
      <rect x="-15"
            width="15"
            y="279"
            height="18"
            fill="#f0d946"
            stroke-width="1"
            stroke="black"/>
      <rect x="-255"
            width="255"
            y="306"
            height="18"
            fill="#f0d946"
            stroke-width="1"
            stroke="black"/>
      <rect x="-80"
            width="80"
            y="333"
            height="18"
            fill="#f0d946"
            stroke-width="1"
            stroke="black"/>
      <rect x="-10"
            width="10"
            y="360"
            height="18"
            fill="#f0d946"
            stroke-width="1"
            stroke="black"/>
      <rect x="-20"
            width="20"
            y="387"
            height="18"
            fill="#f0d946"
            stroke-width="1"
            stroke="black"/>
      <rect x="-0"
            width="0"
            y="414"
            height="18"
            fill="#f0d946"
            stroke-width="1"
            stroke="black"/>
      <rect x="-5"
            width="5"
            y="441"
            height="18"
            fill="#f0d946"
            stroke-width="1"
            stroke="black"/>
      <rect x="-45"
            width="45"
            y="468"
            height="18"
            fill="#f0d946"
            stroke-width="1"
            stroke="black"/>
      <rect x="-5"
            width="5"
            y="495"
            height="18"
            fill="#f0d946"
            stroke-width="1"
            stroke="black"/>
   </g>
</svg>
