<?xml version="1.0" encoding="UTF-8"?>
<svg xmlns="http://www.w3.org/2000/svg" height="722" width="1000">
   <g transform="translate(50, 100)">
      <line x1="0" x2="800" y1="0" y2="0" stroke="black"/>
      <line x1="0" x2="0" y1="0" y2="522" stroke="black"/>
      <text x="400"
            y="-50"
            font-size="16"
            text-anchor="middle"
            font-weight="300">Count</text>
      <text x="400"
            y="572"
            font-size="18"
            text-anchor="middle"
            font-weight="300">Mentions of Artistic Production by Year</text>
      <text y="-20" x="0" font-size="13" text-anchor="middle">0</text>
      <line y1="-15" y2="0" x1="0" x2="0" stroke="black"/>
      <line y1="0"
            y2="522"
            x1="0"
            x2="0"
            stroke="black"
            opacity=".5"/>
      <text y="-20" x="160" font-size="13" text-anchor="middle">32</text>
      <line y1="-15" y2="0" x1="160" x2="160" stroke="black"/>
      <line y1="0"
            y2="522"
            x1="160"
            x2="160"
            stroke="black"
            opacity=".5"/>
      <text y="-20" x="320" font-size="13" text-anchor="middle">64</text>
      <line y1="-15" y2="0" x1="320" x2="320" stroke="black"/>
      <line y1="0"
            y2="522"
            x1="320"
            x2="320"
            stroke="black"
            opacity=".5"/>
      <text y="-20" x="480" font-size="13" text-anchor="middle">96</text>
      <line y1="-15" y2="0" x1="480" x2="480" stroke="black"/>
      <line y1="0"
            y2="522"
            x1="480"
            x2="480"
            stroke="black"
            opacity=".5"/>
      <text y="-20" x="640" font-size="13" text-anchor="middle">128</text>
      <line y1="-15" y2="0" x1="640" x2="640" stroke="black"/>
      <line y1="0"
            y2="522"
            x1="640"
            x2="640"
            stroke="black"
            opacity=".5"/>
      <text y="-20" x="800" font-size="13" text-anchor="middle">160</text>
      <line y1="-15" y2="0" x1="800" x2="800" stroke="black"/>
      <line y1="0"
            y2="522"
            x1="800"
            x2="800"
            stroke="black"
            opacity=".5"/>
      <rect x="0"
            width="0"
            y="9"
            height="18"
            fill="#88c5db"
            stroke-width="1"
            stroke="black"/>
      <text x="825" y="18" text-anchor="middle" font-size="12">1872</text>
      <rect x="0"
            width="0"
            y="36"
            height="18"
            fill="#88c5db"
            stroke-width="1"
            stroke="black"/>
      <text x="825" y="45" text-anchor="middle" font-size="12">1873</text>
      <rect x="0"
            width="5"
            y="63"
            height="18"
            fill="#88c5db"
            stroke-width="1"
            stroke="black"/>
      <text x="825" y="72" text-anchor="middle" font-size="12">1874</text>
      <rect x="0"
            width="10"
            y="90"
            height="18"
            fill="#88c5db"
            stroke-width="1"
            stroke="black"/>
      <text x="825" y="99" text-anchor="middle" font-size="12">1875</text>
      <rect x="0"
            width="5"
            y="117"
            height="18"
            fill="#88c5db"
            stroke-width="1"
            stroke="black"/>
      <text x="825" y="126" text-anchor="middle" font-size="12">1876</text>
      <rect x="0"
            width="30"
            y="144"
            height="18"
            fill="#88c5db"
            stroke-width="1"
            stroke="black"/>
      <text x="825" y="153" text-anchor="middle" font-size="12">1877</text>
      <rect x="0"
            width="30"
            y="171"
            height="18"
            fill="#88c5db"
            stroke-width="1"
            stroke="black"/>
      <text x="825" y="180" text-anchor="middle" font-size="12">1878</text>
      <rect x="0"
            width="15"
            y="198"
            height="18"
            fill="#88c5db"
            stroke-width="1"
            stroke="black"/>
      <text x="825" y="207" text-anchor="middle" font-size="12">1879</text>
      <rect x="0"
            width="0"
            y="225"
            height="18"
            fill="#88c5db"
            stroke-width="1"
            stroke="black"/>
      <text x="825" y="234" text-anchor="middle" font-size="12">1880</text>
      <rect x="0"
            width="45"
            y="252"
            height="18"
            fill="#88c5db"
            stroke-width="1"
            stroke="black"/>
      <text x="825" y="261" text-anchor="middle" font-size="12">1881</text>
      <rect x="0"
            width="230"
            y="279"
            height="18"
            fill="#88c5db"
            stroke-width="1"
            stroke="black"/>
      <text x="825" y="288" text-anchor="middle" font-size="12">1882</text>
      <rect x="0"
            width="230"
            y="306"
            height="18"
            fill="#88c5db"
            stroke-width="1"
            stroke="black"/>
      <text x="825" y="315" text-anchor="middle" font-size="12">1883</text>
      <rect x="0"
            width="180"
            y="333"
            height="18"
            fill="#88c5db"
            stroke-width="1"
            stroke="black"/>
      <text x="825" y="342" text-anchor="middle" font-size="12">1884</text>
      <rect x="0"
            width="180"
            y="360"
            height="18"
            fill="#88c5db"
            stroke-width="1"
            stroke="black"/>
      <text x="825" y="369" text-anchor="middle" font-size="12">1885</text>
      <rect x="0"
            width="10"
            y="387"
            height="18"
            fill="#88c5db"
            stroke-width="1"
            stroke="black"/>
      <text x="825" y="396" text-anchor="middle" font-size="12">1886</text>
      <rect x="0"
            width="10"
            y="414"
            height="18"
            fill="#88c5db"
            stroke-width="1"
            stroke="black"/>
      <text x="825" y="423" text-anchor="middle" font-size="12">1887</text>
      <rect x="0"
            width="345"
            y="441"
            height="18"
            fill="#88c5db"
            stroke-width="1"
            stroke="black"/>
      <text x="825" y="450" text-anchor="middle" font-size="12">1888</text>
      <rect x="0"
            width="740"
            y="468"
            height="18"
            fill="#88c5db"
            stroke-width="1"
            stroke="black"/>
      <text x="825" y="477" text-anchor="middle" font-size="12">1889</text>
      <rect x="0"
            width="120"
            y="495"
            height="18"
            fill="#88c5db"
            stroke-width="1"
            stroke="black"/>
      <text x="825" y="504" text-anchor="middle" font-size="12">1890</text>
   </g>
</svg>
