<?xml version="1.0" encoding="UTF-8"?>
<svg xmlns="http://www.w3.org/2000/svg" height="830" width="850">
   <g transform="translate(350, 100)">
      <line x1="-300" x2="300" y1="0" y2="0" stroke="black"/>
      <line x1="0" x2="0" y1="0" y2="630" stroke="black"/>
      <text x="150"
            y="-50"
            font-size="16"
            text-anchor="middle"
            font-weight="300">Count: "Un-Stressed"</text>
      <text x="-150"
            y="-50"
            font-size="16"
            text-anchor="middle"
            font-weight="300">Count: "Stressed"</text>
      <text x="0"
            y="680"
            font-size="18"
            text-anchor="middle"
            font-weight="300">Mentions of Love by Location: "Stessed" vs. "Un-Stressed"</text>
      <text y="-20" x="0" font-size="13" text-anchor="middle">0</text>
      <line y1="-15" y2="0" x1="0" x2="0" stroke="black"/>
      <line y1="0"
            y2="630"
            x1="0"
            x2="0"
            stroke="black"
            opacity=".5"/>
      <text y="-20" x="60" font-size="13" text-anchor="middle">12</text>
      <line y1="-15" y2="0" x1="60" x2="60" stroke="black"/>
      <line y1="0"
            y2="630"
            x1="60"
            x2="60"
            stroke="black"
            opacity=".5"/>
      <text y="-20" x="120" font-size="13" text-anchor="middle">24</text>
      <line y1="-15" y2="0" x1="120" x2="120" stroke="black"/>
      <line y1="0"
            y2="630"
            x1="120"
            x2="120"
            stroke="black"
            opacity=".5"/>
      <text y="-20" x="180" font-size="13" text-anchor="middle">36</text>
      <line y1="-15" y2="0" x1="180" x2="180" stroke="black"/>
      <line y1="0"
            y2="630"
            x1="180"
            x2="180"
            stroke="black"
            opacity=".5"/>
      <text y="-20" x="240" font-size="13" text-anchor="middle">48</text>
      <line y1="-15" y2="0" x1="240" x2="240" stroke="black"/>
      <line y1="0"
            y2="630"
            x1="240"
            x2="240"
            stroke="black"
            opacity=".5"/>
      <text y="-20" x="300" font-size="13" text-anchor="middle">60</text>
      <line y1="-15" y2="0" x1="300" x2="300" stroke="black"/>
      <line y1="0"
            y2="630"
            x1="300"
            x2="300"
            stroke="black"
            opacity=".5"/>
      <text y="-20" x="-300" font-size="13" text-anchor="middle">60</text>
      <line y1="-15" y2="0" x1="-300" x2="-300" stroke="black"/>
      <line y1="0"
            y2="630"
            x1="-300"
            x2="-300"
            stroke="black"
            opacity=".5"/>
      <text y="-20" x="-240" font-size="13" text-anchor="middle">48</text>
      <line y1="-15" y2="0" x1="-240" x2="-240" stroke="black"/>
      <line y1="0"
            y2="630"
            x1="-240"
            x2="-240"
            stroke="black"
            opacity=".5"/>
      <text y="-20" x="-180" font-size="13" text-anchor="middle">36</text>
      <line y1="-15" y2="0" x1="-180" x2="-180" stroke="black"/>
      <line y1="0"
            y2="630"
            x1="-180"
            x2="-180"
            stroke="black"
            opacity=".5"/>
      <text y="-20" x="-120" font-size="13" text-anchor="middle">24</text>
      <line y1="-15" y2="0" x1="-120" x2="-120" stroke="black"/>
      <line y1="0"
            y2="630"
            x1="-120"
            x2="-120"
            stroke="black"
            opacity=".5"/>
      <text y="-20" x="-60" font-size="13" text-anchor="middle">12</text>
      <line y1="-15" y2="0" x1="-60" x2="-60" stroke="black"/>
      <line y1="0"
            y2="630"
            x1="-60"
            x2="-60"
            stroke="black"
            opacity=".5"/>
      <line x1="-300"
            x2="300"
            y1="18"
            y2="18"
            stroke="black"
            opacity=".5"
            stroke-dasharray="5,5"/>
      <rect x="0"
            width="40"
            y="9"
            height="18"
            fill="#88c5db"
            stroke-width="1"
            stroke="black"/>
      <text x="315" y="21" text-anchor="start" font-size="12">The Hague</text>
      <line x1="-300"
            x2="300"
            y1="45"
            y2="45"
            stroke="black"
            opacity=".5"
            stroke-dasharray="5,5"/>
      <rect x="0"
            width="0"
            y="36"
            height="18"
            fill="#88c5db"
            stroke-width="1"
            stroke="black"/>
      <text x="315" y="48" text-anchor="start" font-size="12">London</text>
      <line x1="-300"
            x2="300"
            y1="72"
            y2="72"
            stroke="black"
            opacity=".5"
            stroke-dasharray="5,5"/>
      <rect x="0"
            width="0"
            y="63"
            height="18"
            fill="#88c5db"
            stroke-width="1"
            stroke="black"/>
      <text x="315" y="75" text-anchor="start" font-size="12">Helvoirt</text>
      <line x1="-300"
            x2="300"
            y1="99"
            y2="99"
            stroke="black"
            opacity=".5"
            stroke-dasharray="5,5"/>
      <rect x="0"
            width="0"
            y="90"
            height="18"
            fill="#88c5db"
            stroke-width="1"
            stroke="black"/>
      <text x="315" y="102" text-anchor="start" font-size="12">Paris</text>
      <line x1="-300"
            x2="300"
            y1="126"
            y2="126"
            stroke="black"
            opacity=".5"
            stroke-dasharray="5,5"/>
      <rect x="0"
            width="0"
            y="117"
            height="18"
            fill="#88c5db"
            stroke-width="1"
            stroke="black"/>
      <text x="315" y="129" text-anchor="start" font-size="12">Ramsgate</text>
      <line x1="-300"
            x2="300"
            y1="153"
            y2="153"
            stroke="black"
            opacity=".5"
            stroke-dasharray="5,5"/>
      <rect x="0"
            width="0"
            y="144"
            height="18"
            fill="#88c5db"
            stroke-width="1"
            stroke="black"/>
      <text x="315" y="156" text-anchor="start" font-size="12">Welwyn</text>
      <line x1="-300"
            x2="300"
            y1="180"
            y2="180"
            stroke="black"
            opacity=".5"
            stroke-dasharray="5,5"/>
      <rect x="0"
            width="0"
            y="171"
            height="18"
            fill="#88c5db"
            stroke-width="1"
            stroke="black"/>
      <text x="315" y="183" text-anchor="start" font-size="12">Holme Court</text>
      <line x1="-300"
            x2="300"
            y1="207"
            y2="207"
            stroke="black"
            opacity=".5"
            stroke-dasharray="5,5"/>
      <rect x="0"
            width="0"
            y="198"
            height="18"
            fill="#88c5db"
            stroke-width="1"
            stroke="black"/>
      <text x="315" y="210" text-anchor="start" font-size="12">Isleworth</text>
      <line x1="-300"
            x2="300"
            y1="234"
            y2="234"
            stroke="black"
            opacity=".5"
            stroke-dasharray="5,5"/>
      <rect x="0"
            width="10"
            y="225"
            height="18"
            fill="#88c5db"
            stroke-width="1"
            stroke="black"/>
      <text x="315" y="237" text-anchor="start" font-size="12">Etten</text>
      <line x1="-300"
            x2="300"
            y1="261"
            y2="261"
            stroke="black"
            opacity=".5"
            stroke-dasharray="5,5"/>
      <rect x="0"
            width="0"
            y="252"
            height="18"
            fill="#88c5db"
            stroke-width="1"
            stroke="black"/>
      <text x="315" y="264" text-anchor="start" font-size="12">Dordrecht</text>
      <line x1="-300"
            x2="300"
            y1="288"
            y2="288"
            stroke="black"
            opacity=".5"
            stroke-dasharray="5,5"/>
      <rect x="0"
            width="5"
            y="279"
            height="18"
            fill="#88c5db"
            stroke-width="1"
            stroke="black"/>
      <text x="315" y="291" text-anchor="start" font-size="12">Amsterdam</text>
      <line x1="-300"
            x2="300"
            y1="315"
            y2="315"
            stroke="black"
            opacity=".5"
            stroke-dasharray="5,5"/>
      <rect x="0"
            width="5"
            y="306"
            height="18"
            fill="#88c5db"
            stroke-width="1"
            stroke="black"/>
      <text x="315" y="318" text-anchor="start" font-size="12">Laken</text>
      <line x1="-300"
            x2="300"
            y1="342"
            y2="342"
            stroke="black"
            opacity=".5"
            stroke-dasharray="5,5"/>
      <rect x="0"
            width="0"
            y="333"
            height="18"
            fill="#88c5db"
            stroke-width="1"
            stroke="black"/>
      <text x="315" y="345" text-anchor="start" font-size="12">Wasmes</text>
      <line x1="-300"
            x2="300"
            y1="369"
            y2="369"
            stroke="black"
            opacity=".5"
            stroke-dasharray="5,5"/>
      <rect x="0"
            width="0"
            y="360"
            height="18"
            fill="#88c5db"
            stroke-width="1"
            stroke="black"/>
      <text x="315" y="372" text-anchor="start" font-size="12">Petit-Wasmes</text>
      <line x1="-300"
            x2="300"
            y1="396"
            y2="396"
            stroke="black"
            opacity=".5"
            stroke-dasharray="5,5"/>
      <rect x="0"
            width="0"
            y="387"
            height="18"
            fill="#88c5db"
            stroke-width="1"
            stroke="black"/>
      <text x="315" y="399" text-anchor="start" font-size="12">Cuesmes</text>
      <line x1="-300"
            x2="300"
            y1="423"
            y2="423"
            stroke="black"
            opacity=".5"
            stroke-dasharray="5,5"/>
      <rect x="0"
            width="0"
            y="414"
            height="18"
            fill="#88c5db"
            stroke-width="1"
            stroke="black"/>
      <text x="315" y="426" text-anchor="start" font-size="12">Brussels</text>
      <line x1="-300"
            x2="300"
            y1="450"
            y2="450"
            stroke="black"
            opacity=".5"
            stroke-dasharray="5,5"/>
      <rect x="0"
            width="0"
            y="441"
            height="18"
            fill="#88c5db"
            stroke-width="1"
            stroke="black"/>
      <text x="315" y="453" text-anchor="start" font-size="12">Hoogeveen</text>
      <line x1="-300"
            x2="300"
            y1="477"
            y2="477"
            stroke="black"
            opacity=".5"
            stroke-dasharray="5,5"/>
      <rect x="0"
            width="5"
            y="468"
            height="18"
            fill="#88c5db"
            stroke-width="1"
            stroke="black"/>
      <text x="315" y="480" text-anchor="start" font-size="12">Nieuw-Amsterdam</text>
      <line x1="-300"
            x2="300"
            y1="504"
            y2="504"
            stroke="black"
            opacity=".5"
            stroke-dasharray="5,5"/>
      <rect x="0"
            width="0"
            y="495"
            height="18"
            fill="#88c5db"
            stroke-width="1"
            stroke="black"/>
      <text x="315" y="507" text-anchor="start" font-size="12">Nuenen</text>
      <line x1="-300"
            x2="300"
            y1="531"
            y2="531"
            stroke="black"
            opacity=".5"
            stroke-dasharray="5,5"/>
      <rect x="0"
            width="0"
            y="522"
            height="18"
            fill="#88c5db"
            stroke-width="1"
            stroke="black"/>
      <text x="315" y="534" text-anchor="start" font-size="12">Antwerp</text>
      <line x1="-300"
            x2="300"
            y1="558"
            y2="558"
            stroke="black"
            opacity=".5"
            stroke-dasharray="5,5"/>
      <rect x="0"
            width="5"
            y="549"
            height="18"
            fill="#88c5db"
            stroke-width="1"
            stroke="black"/>
      <text x="315" y="561" text-anchor="start" font-size="12">Arles</text>
      <line x1="-300"
            x2="300"
            y1="585"
            y2="585"
            stroke="black"
            opacity=".5"
            stroke-dasharray="5,5"/>
      <rect x="0"
            width="0"
            y="576"
            height="18"
            fill="#88c5db"
            stroke-width="1"
            stroke="black"/>
      <text x="315" y="588" text-anchor="start" font-size="12">Saint-Rémy-de-Provence</text>
      <line x1="-300"
            x2="300"
            y1="612"
            y2="612"
            stroke="black"
            opacity=".5"
            stroke-dasharray="5,5"/>
      <rect x="0"
            width="0"
            y="603"
            height="18"
            fill="#88c5db"
            stroke-width="1"
            stroke="black"/>
      <text x="315" y="615" text-anchor="start" font-size="12">Auvers-sur-Oise</text>
      <rect x="-55"
            width="55"
            y="9"
            height="18"
            fill="#f0d946"
            stroke-width="1"
            stroke="black"/>
      <rect x="-5"
            width="5"
            y="36"
            height="18"
            fill="#f0d946"
            stroke-width="1"
            stroke="black"/>
      <rect x="-0"
            width="0"
            y="63"
            height="18"
            fill="#f0d946"
            stroke-width="1"
            stroke="black"/>
      <rect x="-5"
            width="5"
            y="90"
            height="18"
            fill="#f0d946"
            stroke-width="1"
            stroke="black"/>
      <rect x="-0"
            width="0"
            y="117"
            height="18"
            fill="#f0d946"
            stroke-width="1"
            stroke="black"/>
      <rect x="-0"
            width="0"
            y="144"
            height="18"
            fill="#f0d946"
            stroke-width="1"
            stroke="black"/>
      <rect x="-0"
            width="0"
            y="171"
            height="18"
            fill="#f0d946"
            stroke-width="1"
            stroke="black"/>
      <rect x="-0"
            width="0"
            y="198"
            height="18"
            fill="#f0d946"
            stroke-width="1"
            stroke="black"/>
      <rect x="-25"
            width="25"
            y="225"
            height="18"
            fill="#f0d946"
            stroke-width="1"
            stroke="black"/>
      <rect x="-0"
            width="0"
            y="252"
            height="18"
            fill="#f0d946"
            stroke-width="1"
            stroke="black"/>
      <rect x="-0"
            width="0"
            y="279"
            height="18"
            fill="#f0d946"
            stroke-width="1"
            stroke="black"/>
      <rect x="-0"
            width="0"
            y="306"
            height="18"
            fill="#f0d946"
            stroke-width="1"
            stroke="black"/>
      <rect x="-0"
            width="0"
            y="333"
            height="18"
            fill="#f0d946"
            stroke-width="1"
            stroke="black"/>
      <rect x="-0"
            width="0"
            y="360"
            height="18"
            fill="#f0d946"
            stroke-width="1"
            stroke="black"/>
      <rect x="-0"
            width="0"
            y="387"
            height="18"
            fill="#f0d946"
            stroke-width="1"
            stroke="black"/>
      <rect x="-0"
            width="0"
            y="414"
            height="18"
            fill="#f0d946"
            stroke-width="1"
            stroke="black"/>
      <rect x="-30"
            width="30"
            y="441"
            height="18"
            fill="#f0d946"
            stroke-width="1"
            stroke="black"/>
      <rect x="-5"
            width="5"
            y="468"
            height="18"
            fill="#f0d946"
            stroke-width="1"
            stroke="black"/>
      <rect x="-20"
            width="20"
            y="495"
            height="18"
            fill="#f0d946"
            stroke-width="1"
            stroke="black"/>
      <rect x="-5"
            width="5"
            y="522"
            height="18"
            fill="#f0d946"
            stroke-width="1"
            stroke="black"/>
      <rect x="-0"
            width="0"
            y="549"
            height="18"
            fill="#f0d946"
            stroke-width="1"
            stroke="black"/>
      <rect x="-0"
            width="0"
            y="576"
            height="18"
            fill="#f0d946"
            stroke-width="1"
            stroke="black"/>
      <rect x="-0"
            width="0"
            y="603"
            height="18"
            fill="#f0d946"
            stroke-width="1"
            stroke="black"/>
   </g>
</svg>
