<?xml version="1.0" encoding="UTF-8"?>
<svg xmlns="http://www.w3.org/2000/svg" height="830" width="850">
   <g transform="translate(350, 100)">
      <line x1="-300" x2="300" y1="0" y2="0" stroke="black"/>
      <line x1="0" x2="0" y1="0" y2="630" stroke="black"/>
      <text x="150"
            y="-50"
            font-size="16"
            text-anchor="middle"
            font-weight="300">Count: "Un-Stressed"</text>
      <text x="-150"
            y="-50"
            font-size="16"
            text-anchor="middle"
            font-weight="300">Count: "Stressed"</text>
      <text x="0"
            y="680"
            font-size="18"
            text-anchor="middle"
            font-weight="300">Mentions of Love by Location: "Stessed" vs. "Un-Stressed"</text>
      <text y="-20" x="0" font-size="13" text-anchor="middle">0</text>
      <line y1="-15" y2="0" x1="0" x2="0" stroke="black"/>
      <line y1="0"
            y2="630"
            x1="0"
            x2="0"
            stroke="black"
            opacity=".5"/>
      <text y="-20" x="60" font-size="13" text-anchor="middle">12</text>
      <line y1="-15" y2="0" x1="60" x2="60" stroke="black"/>
      <line y1="0"
            y2="630"
            x1="60"
            x2="60"
            stroke="black"
            opacity=".5"/>
      <text y="-20" x="120" font-size="13" text-anchor="middle">24</text>
      <line y1="-15" y2="0" x1="120" x2="120" stroke="black"/>
      <line y1="0"
            y2="630"
            x1="120"
            x2="120"
            stroke="black"
            opacity=".5"/>
      <text y="-20" x="180" font-size="13" text-anchor="middle">36</text>
      <line y1="-15" y2="0" x1="180" x2="180" stroke="black"/>
      <line y1="0"
            y2="630"
            x1="180"
            x2="180"
            stroke="black"
            opacity=".5"/>
      <text y="-20" x="240" font-size="13" text-anchor="middle">48</text>
      <line y1="-15" y2="0" x1="240" x2="240" stroke="black"/>
      <line y1="0"
            y2="630"
            x1="240"
            x2="240"
            stroke="black"
            opacity=".5"/>
      <text y="-20" x="300" font-size="13" text-anchor="middle">60</text>
      <line y1="-15" y2="0" x1="300" x2="300" stroke="black"/>
      <line y1="0"
            y2="630"
            x1="300"
            x2="300"
            stroke="black"
            opacity=".5"/>
      <text y="-20" x="-300" font-size="13" text-anchor="middle">60</text>
      <line y1="-15" y2="0" x1="-300" x2="-300" stroke="black"/>
      <line y1="0"
            y2="630"
            x1="-300"
            x2="-300"
            stroke="black"
            opacity=".5"/>
      <text y="-20" x="-240" font-size="13" text-anchor="middle">48</text>
      <line y1="-15" y2="0" x1="-240" x2="-240" stroke="black"/>
      <line y1="0"
            y2="630"
            x1="-240"
            x2="-240"
            stroke="black"
            opacity=".5"/>
      <text y="-20" x="-180" font-size="13" text-anchor="middle">36</text>
      <line y1="-15" y2="0" x1="-180" x2="-180" stroke="black"/>
      <line y1="0"
            y2="630"
            x1="-180"
            x2="-180"
            stroke="black"
            opacity=".5"/>
      <text y="-20" x="-120" font-size="13" text-anchor="middle">24</text>
      <line y1="-15" y2="0" x1="-120" x2="-120" stroke="black"/>
      <line y1="0"
            y2="630"
            x1="-120"
            x2="-120"
            stroke="black"
            opacity=".5"/>
      <text y="-20" x="-60" font-size="13" text-anchor="middle">12</text>
      <line y1="-15" y2="0" x1="-60" x2="-60" stroke="black"/>
      <line y1="0"
            y2="630"
            x1="-60"
            x2="-60"
            stroke="black"
            opacity=".5"/>
      <rect x="0"
            width="40"
            y="9"
            height="18"
            fill="#88c5db"
            stroke-width="1"
            stroke="black"/>
      <text x="325" y="18" text-anchor="start" font-size="12">The Hague</text>
      <rect x="0"
            width="0"
            y="36"
            height="18"
            fill="#88c5db"
            stroke-width="1"
            stroke="black"/>
      <text x="325" y="45" text-anchor="start" font-size="12">London</text>
      <rect x="0"
            width="0"
            y="63"
            height="18"
            fill="#88c5db"
            stroke-width="1"
            stroke="black"/>
      <text x="325" y="72" text-anchor="start" font-size="12">Helvoirt</text>
      <rect x="0"
            width="0"
            y="90"
            height="18"
            fill="#88c5db"
            stroke-width="1"
            stroke="black"/>
      <text x="325" y="99" text-anchor="start" font-size="12">Paris</text>
      <rect x="0"
            width="0"
            y="117"
            height="18"
            fill="#88c5db"
            stroke-width="1"
            stroke="black"/>
      <text x="325" y="126" text-anchor="start" font-size="12">Ramsgate</text>
      <rect x="0"
            width="0"
            y="144"
            height="18"
            fill="#88c5db"
            stroke-width="1"
            stroke="black"/>
      <text x="325" y="153" text-anchor="start" font-size="12">Welwyn</text>
      <rect x="0"
            width="0"
            y="171"
            height="18"
            fill="#88c5db"
            stroke-width="1"
            stroke="black"/>
      <text x="325" y="180" text-anchor="start" font-size="12">Holme Court</text>
      <rect x="0"
            width="0"
            y="198"
            height="18"
            fill="#88c5db"
            stroke-width="1"
            stroke="black"/>
      <text x="325" y="207" text-anchor="start" font-size="12">Isleworth</text>
      <rect x="0"
            width="10"
            y="225"
            height="18"
            fill="#88c5db"
            stroke-width="1"
            stroke="black"/>
      <text x="325" y="234" text-anchor="start" font-size="12">Etten</text>
      <rect x="0"
            width="0"
            y="252"
            height="18"
            fill="#88c5db"
            stroke-width="1"
            stroke="black"/>
      <text x="325" y="261" text-anchor="start" font-size="12">Dordrecht</text>
      <rect x="0"
            width="5"
            y="279"
            height="18"
            fill="#88c5db"
            stroke-width="1"
            stroke="black"/>
      <text x="325" y="288" text-anchor="start" font-size="12">Amsterdam</text>
      <rect x="0"
            width="5"
            y="306"
            height="18"
            fill="#88c5db"
            stroke-width="1"
            stroke="black"/>
      <text x="325" y="315" text-anchor="start" font-size="12">Laken</text>
      <rect x="0"
            width="0"
            y="333"
            height="18"
            fill="#88c5db"
            stroke-width="1"
            stroke="black"/>
      <text x="325" y="342" text-anchor="start" font-size="12">Wasmes</text>
      <rect x="0"
            width="0"
            y="360"
            height="18"
            fill="#88c5db"
            stroke-width="1"
            stroke="black"/>
      <text x="325" y="369" text-anchor="start" font-size="12">Petit-Wasmes</text>
      <rect x="0"
            width="0"
            y="387"
            height="18"
            fill="#88c5db"
            stroke-width="1"
            stroke="black"/>
      <text x="325" y="396" text-anchor="start" font-size="12">Cuesmes</text>
      <rect x="0"
            width="0"
            y="414"
            height="18"
            fill="#88c5db"
            stroke-width="1"
            stroke="black"/>
      <text x="325" y="423" text-anchor="start" font-size="12">Brussels</text>
      <rect x="0"
            width="0"
            y="441"
            height="18"
            fill="#88c5db"
            stroke-width="1"
            stroke="black"/>
      <text x="325" y="450" text-anchor="start" font-size="12">Hoogeveen</text>
      <rect x="0"
            width="5"
            y="468"
            height="18"
            fill="#88c5db"
            stroke-width="1"
            stroke="black"/>
      <text x="325" y="477" text-anchor="start" font-size="12">Nieuw-Amsterdam</text>
      <rect x="0"
            width="0"
            y="495"
            height="18"
            fill="#88c5db"
            stroke-width="1"
            stroke="black"/>
      <text x="325" y="504" text-anchor="start" font-size="12">Nuenen</text>
      <rect x="0"
            width="0"
            y="522"
            height="18"
            fill="#88c5db"
            stroke-width="1"
            stroke="black"/>
      <text x="325" y="531" text-anchor="start" font-size="12">Antwerp</text>
      <rect x="0"
            width="5"
            y="549"
            height="18"
            fill="#88c5db"
            stroke-width="1"
            stroke="black"/>
      <text x="325" y="558" text-anchor="start" font-size="12">Arles</text>
      <rect x="0"
            width="0"
            y="576"
            height="18"
            fill="#88c5db"
            stroke-width="1"
            stroke="black"/>
      <text x="325" y="585" text-anchor="start" font-size="12">Saint-Rémy-de-Provence</text>
      <rect x="0"
            width="0"
            y="603"
            height="18"
            fill="#88c5db"
            stroke-width="1"
            stroke="black"/>
      <text x="325" y="612" text-anchor="start" font-size="12">Auvers-sur-Oise</text>
      <rect x="-55"
            width="55"
            y="9"
            height="18"
            fill="#f0d946"
            stroke-width="1"
            stroke="black"/>
      <rect x="-5"
            width="5"
            y="36"
            height="18"
            fill="#f0d946"
            stroke-width="1"
            stroke="black"/>
      <rect x="-0"
            width="0"
            y="63"
            height="18"
            fill="#f0d946"
            stroke-width="1"
            stroke="black"/>
      <rect x="-5"
            width="5"
            y="90"
            height="18"
            fill="#f0d946"
            stroke-width="1"
            stroke="black"/>
      <rect x="-0"
            width="0"
            y="117"
            height="18"
            fill="#f0d946"
            stroke-width="1"
            stroke="black"/>
      <rect x="-0"
            width="0"
            y="144"
            height="18"
            fill="#f0d946"
            stroke-width="1"
            stroke="black"/>
      <rect x="-0"
            width="0"
            y="171"
            height="18"
            fill="#f0d946"
            stroke-width="1"
            stroke="black"/>
      <rect x="-0"
            width="0"
            y="198"
            height="18"
            fill="#f0d946"
            stroke-width="1"
            stroke="black"/>
      <rect x="-25"
            width="25"
            y="225"
            height="18"
            fill="#f0d946"
            stroke-width="1"
            stroke="black"/>
      <rect x="-0"
            width="0"
            y="252"
            height="18"
            fill="#f0d946"
            stroke-width="1"
            stroke="black"/>
      <rect x="-0"
            width="0"
            y="279"
            height="18"
            fill="#f0d946"
            stroke-width="1"
            stroke="black"/>
      <rect x="-0"
            width="0"
            y="306"
            height="18"
            fill="#f0d946"
            stroke-width="1"
            stroke="black"/>
      <rect x="-0"
            width="0"
            y="333"
            height="18"
            fill="#f0d946"
            stroke-width="1"
            stroke="black"/>
      <rect x="-0"
            width="0"
            y="360"
            height="18"
            fill="#f0d946"
            stroke-width="1"
            stroke="black"/>
      <rect x="-0"
            width="0"
            y="387"
            height="18"
            fill="#f0d946"
            stroke-width="1"
            stroke="black"/>
      <rect x="-0"
            width="0"
            y="414"
            height="18"
            fill="#f0d946"
            stroke-width="1"
            stroke="black"/>
      <rect x="-30"
            width="30"
            y="441"
            height="18"
            fill="#f0d946"
            stroke-width="1"
            stroke="black"/>
      <rect x="-5"
            width="5"
            y="468"
            height="18"
            fill="#f0d946"
            stroke-width="1"
            stroke="black"/>
      <rect x="-20"
            width="20"
            y="495"
            height="18"
            fill="#f0d946"
            stroke-width="1"
            stroke="black"/>
      <rect x="-5"
            width="5"
            y="522"
            height="18"
            fill="#f0d946"
            stroke-width="1"
            stroke="black"/>
      <rect x="-0"
            width="0"
            y="549"
            height="18"
            fill="#f0d946"
            stroke-width="1"
            stroke="black"/>
      <rect x="-0"
            width="0"
            y="576"
            height="18"
            fill="#f0d946"
            stroke-width="1"
            stroke="black"/>
      <rect x="-0"
            width="0"
            y="603"
            height="18"
            fill="#f0d946"
            stroke-width="1"
            stroke="black"/>
   </g>
</svg>
