<?xml version="1.0" encoding="UTF-8"?>
<svg xmlns="http://www.w3.org/2000/svg" height="830" width="1000">
   <g transform="translate(50, 100)">
      <line x1="0" x2="800" y1="0" y2="0" stroke="black"/>
      <line x1="0" x2="0" y1="0" y2="630" stroke="black"/>
      <text x="400"
            y="-50"
            font-size="16"
            text-anchor="middle"
            font-weight="300">Count</text>
      <text x="400"
            y="680"
            font-size="18"
            text-anchor="middle"
            font-weight="300">Mentions of Artistic Production by Location</text>
      <text y="-20" x="0" font-size="13" text-anchor="middle">0</text>
      <line y1="-15" y2="0" x1="0" x2="0" stroke="black"/>
      <line y1="0"
            y2="630"
            x1="0"
            x2="0"
            stroke="black"
            opacity=".5"/>
      <text y="-20" x="160" font-size="13" text-anchor="middle">32</text>
      <line y1="-15" y2="0" x1="160" x2="160" stroke="black"/>
      <line y1="0"
            y2="630"
            x1="160"
            x2="160"
            stroke="black"
            opacity=".5"/>
      <text y="-20" x="320" font-size="13" text-anchor="middle">64</text>
      <line y1="-15" y2="0" x1="320" x2="320" stroke="black"/>
      <line y1="0"
            y2="630"
            x1="320"
            x2="320"
            stroke="black"
            opacity=".5"/>
      <text y="-20" x="480" font-size="13" text-anchor="middle">96</text>
      <line y1="-15" y2="0" x1="480" x2="480" stroke="black"/>
      <line y1="0"
            y2="630"
            x1="480"
            x2="480"
            stroke="black"
            opacity=".5"/>
      <text y="-20" x="640" font-size="13" text-anchor="middle">128</text>
      <line y1="-15" y2="0" x1="640" x2="640" stroke="black"/>
      <line y1="0"
            y2="630"
            x1="640"
            x2="640"
            stroke="black"
            opacity=".5"/>
      <text y="-20" x="800" font-size="13" text-anchor="middle">160</text>
      <line y1="-15" y2="0" x1="800" x2="800" stroke="black"/>
      <line y1="0"
            y2="630"
            x1="800"
            x2="800"
            stroke="black"
            opacity=".5"/>
      <circle cx="370" cy="18" r="3" fill="#fc5a03"/>
      <text x="825" y="27" text-anchor="start" font-size="12">The Hague</text>
      <circle cx="10" cy="45" r="3" fill="#fc5a03"/>
      <line x1="370"
            x2="10"
            y1="18"
            y2="45"
            stroke="#fc5a03"
            stroke-width="2"/>
      <text x="825" y="54" text-anchor="start" font-size="12">London</text>
      <circle cx="0" cy="72" r="3" fill="#fc5a03"/>
      <line x1="10"
            x2="0"
            y1="45"
            y2="72"
            stroke="#fc5a03"
            stroke-width="2"/>
      <text x="825" y="81" text-anchor="start" font-size="12">Helvoirt</text>
      <circle cx="15" cy="99" r="3" fill="#fc5a03"/>
      <line x1="0"
            x2="15"
            y1="72"
            y2="99"
            stroke="#fc5a03"
            stroke-width="2"/>
      <text x="825" y="108" text-anchor="start" font-size="12">Paris</text>
      <circle cx="0" cy="126" r="3" fill="#fc5a03"/>
      <line x1="15"
            x2="0"
            y1="99"
            y2="126"
            stroke="#fc5a03"
            stroke-width="2"/>
      <text x="825" y="135" text-anchor="start" font-size="12">Ramsgate</text>
      <circle cx="0" cy="153" r="3" fill="#fc5a03"/>
      <line x1="0"
            x2="0"
            y1="126"
            y2="153"
            stroke="#fc5a03"
            stroke-width="2"/>
      <text x="825" y="162" text-anchor="start" font-size="12">Welwyn</text>
      <circle cx="5" cy="180" r="3" fill="#fc5a03"/>
      <line x1="0"
            x2="5"
            y1="153"
            y2="180"
            stroke="#fc5a03"
            stroke-width="2"/>
      <text x="825" y="189" text-anchor="start" font-size="12">Holme Court</text>
      <circle cx="0" cy="207" r="3" fill="#fc5a03"/>
      <line x1="5"
            x2="0"
            y1="180"
            y2="207"
            stroke="#fc5a03"
            stroke-width="2"/>
      <text x="825" y="216" text-anchor="start" font-size="12">Isleworth</text>
      <circle cx="45" cy="234" r="3" fill="#fc5a03"/>
      <line x1="0"
            x2="45"
            y1="207"
            y2="234"
            stroke="#fc5a03"
            stroke-width="2"/>
      <text x="825" y="243" text-anchor="start" font-size="12">Etten</text>
      <circle cx="0" cy="261" r="3" fill="#fc5a03"/>
      <line x1="45"
            x2="0"
            y1="234"
            y2="261"
            stroke="#fc5a03"
            stroke-width="2"/>
      <text x="825" y="270" text-anchor="start" font-size="12">Dordrecht</text>
      <circle cx="50" cy="288" r="3" fill="#fc5a03"/>
      <line x1="0"
            x2="50"
            y1="261"
            y2="288"
            stroke="#fc5a03"
            stroke-width="2"/>
      <text x="825" y="297" text-anchor="start" font-size="12">Amsterdam</text>
      <circle cx="5" cy="315" r="3" fill="#fc5a03"/>
      <line x1="50"
            x2="5"
            y1="288"
            y2="315"
            stroke="#fc5a03"
            stroke-width="2"/>
      <text x="825" y="324" text-anchor="start" font-size="12">Laken</text>
      <circle cx="5" cy="342" r="3" fill="#fc5a03"/>
      <line x1="5"
            x2="5"
            y1="315"
            y2="342"
            stroke="#fc5a03"
            stroke-width="2"/>
      <text x="825" y="351" text-anchor="start" font-size="12">Wasmes</text>
      <circle cx="0" cy="369" r="3" fill="#fc5a03"/>
      <line x1="5"
            x2="0"
            y1="342"
            y2="369"
            stroke="#fc5a03"
            stroke-width="2"/>
      <text x="825" y="378" text-anchor="start" font-size="12">Petit-Wasmes</text>
      <circle cx="10" cy="396" r="3" fill="#fc5a03"/>
      <line x1="0"
            x2="10"
            y1="369"
            y2="396"
            stroke="#fc5a03"
            stroke-width="2"/>
      <text x="825" y="405" text-anchor="start" font-size="12">Cuesmes</text>
      <circle cx="5" cy="423" r="3" fill="#fc5a03"/>
      <line x1="10"
            x2="5"
            y1="396"
            y2="423"
            stroke="#fc5a03"
            stroke-width="2"/>
      <text x="825" y="432" text-anchor="start" font-size="12">Brussels</text>
      <circle cx="35" cy="450" r="3" fill="#fc5a03"/>
      <line x1="5"
            x2="35"
            y1="423"
            y2="450"
            stroke="#fc5a03"
            stroke-width="2"/>
      <text x="825" y="459" text-anchor="start" font-size="12">Hoogeveen</text>
      <circle cx="55" cy="477" r="3" fill="#fc5a03"/>
      <line x1="35"
            x2="55"
            y1="450"
            y2="477"
            stroke="#fc5a03"
            stroke-width="2"/>
      <text x="825" y="486" text-anchor="start" font-size="12">Nieuw-Amsterdam</text>
      <circle cx="360" cy="504" r="3" fill="#fc5a03"/>
      <line x1="55"
            x2="360"
            y1="477"
            y2="504"
            stroke="#fc5a03"
            stroke-width="2"/>
      <text x="825" y="513" text-anchor="start" font-size="12">Nuenen</text>
      <circle cx="10" cy="531" r="3" fill="#fc5a03"/>
      <line x1="360"
            x2="10"
            y1="504"
            y2="531"
            stroke="#fc5a03"
            stroke-width="2"/>
      <text x="825" y="540" text-anchor="start" font-size="12">Antwerp</text>
      <circle cx="495" cy="558" r="3" fill="#fc5a03"/>
      <line x1="10"
            x2="495"
            y1="531"
            y2="558"
            stroke="#fc5a03"
            stroke-width="2"/>
      <text x="825" y="567" text-anchor="start" font-size="12">Arles</text>
      <circle cx="690" cy="585" r="3" fill="#fc5a03"/>
      <line x1="495"
            x2="690"
            y1="558"
            y2="585"
            stroke="#fc5a03"
            stroke-width="2"/>
      <text x="825" y="594" text-anchor="start" font-size="12">Saint-Rémy-de-Provence</text>
      <circle cx="20" cy="612" r="3" fill="#fc5a03"/>
      <line x1="690"
            x2="20"
            y1="585"
            y2="612"
            stroke="#fc5a03"
            stroke-width="2"/>
      <text x="825" y="621" text-anchor="start" font-size="12">Auvers-sur-Oise</text>
   </g>
</svg>
