<?xml version="1.0" encoding="UTF-8"?>
<svg xmlns="http://www.w3.org/2000/svg" height="830" width="1025">
   <g transform="translate(50, 100)">
      <line x1="0" x2="800" y1="0" y2="0" stroke="black"/>
      <line x1="0" x2="0" y1="0" y2="630" stroke="black"/>
      <text x="400"
            y="-50"
            font-size="16"
            text-anchor="middle"
            font-weight="300">Count</text>
      <text x="400"
            y="680"
            font-size="18"
            text-anchor="middle"
            font-weight="300">Mentions of Artistic Production by Location</text>
      <text y="-20" x="0" font-size="13" text-anchor="middle">0</text>
      <line y1="-15" y2="0" x1="0" x2="0" stroke="black"/>
      <line y1="0"
            y2="630"
            x1="0"
            x2="0"
            stroke="black"
            opacity=".5"/>
      <text y="-20" x="160" font-size="13" text-anchor="middle">32</text>
      <line y1="-15" y2="0" x1="160" x2="160" stroke="black"/>
      <line y1="0"
            y2="630"
            x1="160"
            x2="160"
            stroke="black"
            opacity=".5"/>
      <text y="-20" x="320" font-size="13" text-anchor="middle">64</text>
      <line y1="-15" y2="0" x1="320" x2="320" stroke="black"/>
      <line y1="0"
            y2="630"
            x1="320"
            x2="320"
            stroke="black"
            opacity=".5"/>
      <text y="-20" x="480" font-size="13" text-anchor="middle">96</text>
      <line y1="-15" y2="0" x1="480" x2="480" stroke="black"/>
      <line y1="0"
            y2="630"
            x1="480"
            x2="480"
            stroke="black"
            opacity=".5"/>
      <text y="-20" x="640" font-size="13" text-anchor="middle">128</text>
      <line y1="-15" y2="0" x1="640" x2="640" stroke="black"/>
      <line y1="0"
            y2="630"
            x1="640"
            x2="640"
            stroke="black"
            opacity=".5"/>
      <text y="-20" x="800" font-size="13" text-anchor="middle">160</text>
      <line y1="-15" y2="0" x1="800" x2="800" stroke="black"/>
      <line y1="0"
            y2="630"
            x1="800"
            x2="800"
            stroke="black"
            opacity=".5"/>
      <rect x="0"
            width="370"
            y="9"
            height="18"
            fill="#88c5db"
            stroke-width="1"
            stroke="black"/>
      <text x="825" y="18" text-anchor="start" font-size="12">The_Hague</text>
      <rect x="0"
            width="10"
            y="36"
            height="18"
            fill="#88c5db"
            stroke-width="1"
            stroke="black"/>
      <text x="825" y="45" text-anchor="start" font-size="12">London</text>
      <rect x="0"
            width="0"
            y="63"
            height="18"
            fill="#88c5db"
            stroke-width="1"
            stroke="black"/>
      <text x="825" y="72" text-anchor="start" font-size="12">Helvoirt</text>
      <rect x="0"
            width="15"
            y="90"
            height="18"
            fill="#88c5db"
            stroke-width="1"
            stroke="black"/>
      <text x="825" y="99" text-anchor="start" font-size="12">Paris</text>
      <rect x="0"
            width="0"
            y="117"
            height="18"
            fill="#88c5db"
            stroke-width="1"
            stroke="black"/>
      <text x="825" y="126" text-anchor="start" font-size="12">Ramsgate</text>
      <rect x="0"
            width="0"
            y="144"
            height="18"
            fill="#88c5db"
            stroke-width="1"
            stroke="black"/>
      <text x="825" y="153" text-anchor="start" font-size="12">Welwyn</text>
      <rect x="0"
            width="5"
            y="171"
            height="18"
            fill="#88c5db"
            stroke-width="1"
            stroke="black"/>
      <text x="825" y="180" text-anchor="start" font-size="12">Holme_Court</text>
      <rect x="0"
            width="0"
            y="198"
            height="18"
            fill="#88c5db"
            stroke-width="1"
            stroke="black"/>
      <text x="825" y="207" text-anchor="start" font-size="12">Isleworth</text>
      <rect x="0"
            width="45"
            y="225"
            height="18"
            fill="#88c5db"
            stroke-width="1"
            stroke="black"/>
      <text x="825" y="234" text-anchor="start" font-size="12">Etten</text>
      <rect x="0"
            width="0"
            y="252"
            height="18"
            fill="#88c5db"
            stroke-width="1"
            stroke="black"/>
      <text x="825" y="261" text-anchor="start" font-size="12">Dordrecht</text>
      <rect x="0"
            width="50"
            y="279"
            height="18"
            fill="#88c5db"
            stroke-width="1"
            stroke="black"/>
      <text x="825" y="288" text-anchor="start" font-size="12">Amsterdam</text>
      <rect x="0"
            width="5"
            y="306"
            height="18"
            fill="#88c5db"
            stroke-width="1"
            stroke="black"/>
      <text x="825" y="315" text-anchor="start" font-size="12">Laken</text>
      <rect x="0"
            width="5"
            y="333"
            height="18"
            fill="#88c5db"
            stroke-width="1"
            stroke="black"/>
      <text x="825" y="342" text-anchor="start" font-size="12">Wasmes</text>
      <rect x="0"
            width="0"
            y="360"
            height="18"
            fill="#88c5db"
            stroke-width="1"
            stroke="black"/>
      <text x="825" y="369" text-anchor="start" font-size="12">Petit-Wasmes</text>
      <rect x="0"
            width="10"
            y="387"
            height="18"
            fill="#88c5db"
            stroke-width="1"
            stroke="black"/>
      <text x="825" y="396" text-anchor="start" font-size="12">Cuesmes</text>
      <rect x="0"
            width="5"
            y="414"
            height="18"
            fill="#88c5db"
            stroke-width="1"
            stroke="black"/>
      <text x="825" y="423" text-anchor="start" font-size="12">Brussels</text>
      <rect x="0"
            width="35"
            y="441"
            height="18"
            fill="#88c5db"
            stroke-width="1"
            stroke="black"/>
      <text x="825" y="450" text-anchor="start" font-size="12">Hoogeveen</text>
      <rect x="0"
            width="55"
            y="468"
            height="18"
            fill="#88c5db"
            stroke-width="1"
            stroke="black"/>
      <text x="825" y="477" text-anchor="start" font-size="12">Nieuw-Amsterdam</text>
      <rect x="0"
            width="360"
            y="495"
            height="18"
            fill="#88c5db"
            stroke-width="1"
            stroke="black"/>
      <text x="825" y="504" text-anchor="start" font-size="12">Nuenen</text>
      <rect x="0"
            width="10"
            y="522"
            height="18"
            fill="#88c5db"
            stroke-width="1"
            stroke="black"/>
      <text x="825" y="531" text-anchor="start" font-size="12">Antwerp</text>
      <rect x="0"
            width="495"
            y="549"
            height="18"
            fill="#88c5db"
            stroke-width="1"
            stroke="black"/>
      <text x="825" y="558" text-anchor="start" font-size="12">Arles</text>
      <rect x="0"
            width="690"
            y="576"
            height="18"
            fill="#88c5db"
            stroke-width="1"
            stroke="black"/>
      <text x="825" y="585" text-anchor="start" font-size="12">Saint-Rémy-de-Provence</text>
      <rect x="0"
            width="20"
            y="603"
            height="18"
            fill="#88c5db"
            stroke-width="1"
            stroke="black"/>
      <text x="825" y="612" text-anchor="start" font-size="12">Auvers-sur-Oise</text>
   </g>
</svg>
